<?xml version="1.0" ?>
<svg width="800" height="540" viewBox="0 0 800 540" version="1.1"
     xmlns="http://www.w3.org/2000/svg" xmlns:xlink="http://www.w3.org/1999/xlink">
    <defs>
      <g id="baseEllipses" font-size="20" >
        <ellipse cx="125" cy="125" rx="100" ry="50"
                 fill="none" stroke="#888888" stroke-width="2" />
        <ellipse cx="225" cy="75" rx="100" ry="50"
                 fill="none" stroke="#888888" stroke-width="2" />
        <text x="44" y="68">začátek</text>
        <text x="230" y="145">konec</text>
      </g>
    </defs>

    <g font-size="20" font-family="sans-serif">
      <g transform="translate(0,0)">
        <text x="50" y="210">large-arc-flag=0</text>
        <text x="50" y="240">sweep-flag=0</text>
        <use xlink:href="#baseEllipses"/>
        <path d="M 125,75 a100,50 0 0,0 100,50"
              fill="none" stroke="red" stroke-width="6" />
      </g>
      <g transform="translate(400,0)">
        <text x="50" y="210">large-arc-flag=0</text>
        <text x="50" y="240">sweep-flag=1</text>
        <use xlink:href="#baseEllipses"/>
        <path d="M 125,75 a100,50 0 0,1 100,50"
              fill="none" stroke="red" stroke-width="6" />
      </g>
      <g transform="translate(0,280)">
        <text x="50" y="210">large-arc-flag=1</text>
        <text x="50" y="240">sweep-flag=0</text>
        <use xlink:href="#baseEllipses"/>
        <path d="M 125,75 a100,50 0 1,0 100,50"
              fill="none" stroke="red" stroke-width="6" />
      </g>
      <g transform="translate(400,280)">
        <text x="50" y="210">large-arc-flag=1</text>
        <text x="50" y="240">sweep-flag=1</text>
        <use xlink:href="#baseEllipses"/>
        <path d="M 125,75 a100,50 0 1,1 100,50"
              fill="none" stroke="red" stroke-width="6" />
      </g>
    </g>
</svg>

