<svg xmlns="http://www.w3.org/2000/svg" viewBox="0 0 200 170" width="400" height="340"><path stroke="blue" stroke-width="20" d="M 100.5 50L 100.5 131"/><g transform="translate(30, 30)"><path d="M 130 0L 0 0L 0 130" fill="none" stroke="#000" stroke-width="2"/><path stroke="#000" d="M 0 0.5L 130 0.5M 0.5 0L 0.5 130M 0 20.5L 130 20.5M 20.5 0L 20.5 130M 0 40.5L 130 40.5M 40.5 0L 40.5 130M 0 60.5L 130 60.5M 60.5 0L 60.5 130M 0 80.5L 130 80.5M 80.5 0L 80.5 130M 0 100.5L 130 100.5M 100.5 0L 100.5 130M 0 120.5L 130 120.5M 120.5 0L 120.5 130"/></g><path stroke="red" stroke-width="2" d="M 100.5 50L 100.5 131"/><g><text font-size="12px" font-family="sans-serif" font-weight="bold" text-anchor="middle" x="30" y="26">(0; 0)</text><text font-size="12px" font-family="sans-serif" font-weight="bold" text-anchor="middle" fill="red" x="125" y="46">(3,5; 1)</text><text font-size="12px" font-family="sans-serif" font-weight="bold" text-anchor="middle" fill="red" x="125" y="144">(3,5; 5)</text></g></svg>