<?xml version="1.0" encoding="UTF-8" standalone="no"?>
<!DOCTYPE svg PUBLIC "-//W3C//DTD SVG 1.1//EN" "http://www.w3.org/Graphics/SVG/1.1/DTD/svg11.dtd">
<!-- Generated by graphviz version 2.40.1 (20161225.0304)
 -->
<!-- Title: G Pages: 1 -->
<svg width="271pt" height="288pt" viewBox="0.00 0.00 270.72 288.00" xmlns="http://www.w3.org/2000/svg" xmlns:xlink="http://www.w3.org/1999/xlink">
<g id="graph0" class="graph" transform="scale(1.1077 1.1077) rotate(0) translate(4 256)">
<title>G</title>
<polygon fill="#ffffff" stroke="transparent" points="-4,4 -4,-256 240.4016,-256 240.4016,4 -4,4"/>
<!-- cp -->
<g id="node1" class="node">
<title>cp</title>
<ellipse fill="none" stroke="#000000" cx="86.1946" cy="-162" rx="51.9754" ry="18"/>
<text text-anchor="middle" x="86.1946" y="-159.3" font-family="monospace" font-size="9.00" fill="#000000">Comment.prototype</text>
</g>
<!-- approve -->
<g id="node2" class="node">
<title>approve</title>
<ellipse fill="none" stroke="#000000" cx="36.1946" cy="-234" rx="29.7775" ry="18"/>
<text text-anchor="middle" x="36.1946" y="-231.3" font-family="monospace" font-size="9.00" fill="#000000">approve()</text>
</g>
<!-- cp&#45;&gt;approve -->
<g id="edge1" class="edge">
<title>cp-&gt;approve</title>
<path fill="none" stroke="#000000" d="M73.8351,-179.7978C67.8127,-188.4699 60.4623,-199.0545 53.8605,-208.5611"/>
<polygon fill="#000000" stroke="#000000" points="50.8969,-206.6927 48.0677,-216.9028 56.6465,-210.6855 50.8969,-206.6927"/>
</g>
<!-- buildDeleteButton -->
<g id="node3" class="node">
<title>buildDeleteButton</title>
<ellipse fill="none" stroke="#000000" cx="136.1946" cy="-234" rx="51.7554" ry="18"/>
<text text-anchor="middle" x="136.1946" y="-231.3" font-family="monospace" font-size="9.00" fill="#000000">buildDeleteButton()</text>
</g>
<!-- cp&#45;&gt;buildDeleteButton -->
<g id="edge2" class="edge">
<title>cp-&gt;buildDeleteButton</title>
<path fill="none" stroke="#000000" d="M98.5542,-179.7978C104.4879,-188.3424 111.711,-198.7436 118.237,-208.141"/>
<polygon fill="#000000" stroke="#000000" points="115.3984,-210.1897 123.9772,-216.407 121.148,-206.1969 115.3984,-210.1897"/>
</g>
<!-- Comment -->
<g id="node4" class="node">
<title>Comment</title>
<ellipse fill="none" stroke="#000000" cx="30.1946" cy="-90" rx="30.3905" ry="18"/>
<text text-anchor="middle" x="30.1946" y="-87.3" font-family="monospace" font-size="9.00" fill="#000000">Comment</text>
</g>
<!-- Comment&#45;&gt;cp -->
<g id="edge3" class="edge">
<title>Comment-&gt;cp</title>
<path fill="none" stroke="#000000" d="M42.9019,-106.3379C49.8097,-115.2194 58.5089,-126.4041 66.2941,-136.4136"/>
<polygon fill="#000000" stroke="#000000" points="63.6571,-138.7241 72.5593,-144.4688 69.1825,-134.4265 63.6571,-138.7241"/>
</g>
<!-- BetterComment -->
<g id="node5" class="node">
<title>BetterComment</title>
<ellipse fill="none" stroke="#000000" cx="91.1946" cy="-18" rx="43.1755" ry="18"/>
<text text-anchor="middle" x="91.1946" y="-15.3" font-family="monospace" font-size="9.00" fill="#000000">BetterComment</text>
</g>
<!-- bcp -->
<g id="node6" class="node">
<title>bcp</title>
<ellipse fill="none" stroke="#000000" cx="143.1946" cy="-90" rx="64.7607" ry="18"/>
<text text-anchor="middle" x="143.1946" y="-87.3" font-family="monospace" font-size="9.00" fill="#000000">BetterComment.prototype</text>
</g>
<!-- BetterComment&#45;&gt;bcp -->
<g id="edge4" class="edge">
<title>BetterComment-&gt;bcp</title>
<path fill="none" stroke="#000000" d="M103.7824,-35.4292C109.9498,-43.9688 117.5038,-54.4281 124.3425,-63.8971"/>
<polygon fill="#000000" stroke="#000000" points="121.6692,-66.1735 130.3615,-72.2311 127.344,-62.0751 121.6692,-66.1735"/>
</g>
<!-- bcp&#45;&gt;cp -->
<g id="edge5" class="edge">
<title>bcp-&gt;cp</title>
<path fill="none" stroke="#000000" stroke-dasharray="5,2" d="M129.1047,-107.7978C122.2712,-116.4296 113.9377,-126.9561 106.4388,-136.4283"/>
<polygon fill="#000000" stroke="#000000" points="103.5853,-134.394 100.1224,-144.407 109.0737,-138.739 103.5853,-134.394"/>
</g>
<!-- betterComment -->
<g id="node7" class="node">
<title>betterComment</title>
<ellipse fill="none" stroke="#000000" cx="194.1946" cy="-18" rx="42.415" ry="18"/>
<text text-anchor="middle" x="194.1946" y="-15.3" font-family="monospace" font-size="9.00" fill="#000000">betterComment</text>
</g>
<!-- betterComment&#45;&gt;bcp -->
<g id="edge6" class="edge">
<title>betterComment-&gt;bcp</title>
<path fill="none" stroke="#000000" stroke-dasharray="5,2" d="M181.8489,-35.4292C175.8001,-43.9688 168.3913,-54.4281 161.6842,-63.8971"/>
<polygon fill="#000000" stroke="#000000" points="158.705,-62.0478 155.7809,-72.2311 164.4172,-66.0939 158.705,-62.0478"/>
</g>
</g>
</svg>