<?xml version="1.0" encoding="UTF-8" standalone="no"?>
<!DOCTYPE svg PUBLIC "-//W3C//DTD SVG 1.1//EN" "http://www.w3.org/Graphics/SVG/1.1/DTD/svg11.dtd">
<!-- Generated by graphviz version 2.40.1 (20161225.0304)
 -->
<!-- Title: G Pages: 1 -->
<svg width="319pt" height="260pt" viewBox="0.00 0.00 319.23 260.00" xmlns="http://www.w3.org/2000/svg" xmlns:xlink="http://www.w3.org/1999/xlink">
<g id="graph0" class="graph" transform="scale(1 1) rotate(0) translate(4 256)">
<title>G</title>
<polygon fill="#ffffff" stroke="transparent" points="-4,4 -4,-256 315.2316,-256 315.2316,4 -4,4"/>
<!-- cp -->
<g id="node1" class="node">
<title>cp</title>
<ellipse fill="none" stroke="#000000" cx="125.5682" cy="-162" rx="84.5517" ry="18"/>
<text text-anchor="middle" x="125.5682" y="-157.8" font-family="monospace" font-size="14.00" fill="#000000">commentPrototype</text>
</g>
<!-- approve -->
<g id="node2" class="node">
<title>approve</title>
<ellipse fill="none" stroke="#000000" cx="48.5682" cy="-234" rx="48.6365" ry="18"/>
<text text-anchor="middle" x="48.5682" y="-229.8" font-family="monospace" font-size="14.00" fill="#000000">approve()</text>
</g>
<!-- cp&#45;&gt;approve -->
<g id="edge1" class="edge">
<title>cp-&gt;approve</title>
<path fill="none" stroke="#000000" d="M106.5345,-179.7978C96.7152,-188.9794 84.6034,-200.3048 73.9945,-210.2248"/>
<polygon fill="#000000" stroke="#000000" points="71.5032,-207.7626 66.5894,-217.149 76.2842,-212.8756 71.5032,-207.7626"/>
</g>
<!-- buildDeleteButton -->
<g id="node3" class="node">
<title>buildDeleteButton</title>
<ellipse fill="none" stroke="#000000" cx="203.5682" cy="-234" rx="88.6217" ry="18"/>
<text text-anchor="middle" x="203.5682" y="-229.8" font-family="monospace" font-size="14.00" fill="#000000">buildDeleteButton()</text>
</g>
<!-- cp&#45;&gt;buildDeleteButton -->
<g id="edge2" class="edge">
<title>cp-&gt;buildDeleteButton</title>
<path fill="none" stroke="#000000" d="M144.8491,-179.7978C154.5781,-188.7783 166.5288,-199.8098 177.1036,-209.5711"/>
<polygon fill="#000000" stroke="#000000" points="174.7871,-212.196 184.5091,-216.407 179.535,-207.0523 174.7871,-212.196"/>
</g>
<!-- obj -->
<g id="node4" class="node">
<title>obj</title>
<ellipse fill="none" stroke="#000000" cx="48.5682" cy="-90" rx="27" ry="18"/>
<text text-anchor="middle" x="48.5682" y="-85.8" font-family="monospace" font-size="14.00" fill="#000000">obj</text>
</g>
<!-- obj&#45;&gt;cp -->
<g id="edge3" class="edge">
<title>obj-&gt;cp</title>
<path fill="none" stroke="#000000" stroke-dasharray="5,2" d="M64.5227,-104.9184C74.5682,-114.3117 87.7756,-126.6615 99.3354,-137.4706"/>
<polygon fill="#000000" stroke="#000000" points="96.9493,-140.0312 106.6441,-144.3047 101.7303,-134.9182 96.9493,-140.0312"/>
</g>
<!-- bcp -->
<g id="node5" class="node">
<title>bcp</title>
<ellipse fill="none" stroke="#000000" cx="202.5682" cy="-90" rx="108.827" ry="18"/>
<text text-anchor="middle" x="202.5682" y="-85.8" font-family="monospace" font-size="14.00" fill="#000000">betterCommentPrototype</text>
</g>
<!-- bcp&#45;&gt;cp -->
<g id="edge4" class="edge">
<title>bcp-&gt;cp</title>
<path fill="none" stroke="#000000" stroke-dasharray="5,2" d="M183.5345,-107.7978C173.9303,-116.7783 162.1328,-127.8098 151.6935,-137.5711"/>
<polygon fill="#000000" stroke="#000000" points="149.2968,-135.0205 144.383,-144.407 154.0777,-140.1335 149.2968,-135.0205"/>
</g>
<!-- bobj -->
<g id="node6" class="node">
<title>bobj</title>
<ellipse fill="none" stroke="#000000" cx="202.5682" cy="-18" rx="47.5081" ry="18"/>
<text text-anchor="middle" x="202.5682" y="-13.8" font-family="monospace" font-size="14.00" fill="#000000">betterObj</text>
</g>
<!-- bobj&#45;&gt;bcp -->
<g id="edge5" class="edge">
<title>bobj-&gt;bcp</title>
<path fill="none" stroke="#000000" stroke-dasharray="5,2" d="M202.5682,-36.1686C202.5682,-43.869 202.5682,-53.0257 202.5682,-61.5834"/>
<polygon fill="#000000" stroke="#000000" points="199.0683,-61.5867 202.5682,-71.5867 206.0683,-61.5868 199.0683,-61.5867"/>
</g>
</g>
</svg>