<?xml version="1.0" encoding="UTF-8" standalone="no"?>
<!DOCTYPE svg PUBLIC "-//W3C//DTD SVG 1.1//EN" "http://www.w3.org/Graphics/SVG/1.1/DTD/svg11.dtd">
<!-- Generated by graphviz version 2.40.1 (20161225.0304)
 -->
<!-- Title: G Pages: 1 -->
<svg width="228pt" height="288pt" viewBox="0.00 0.00 227.88 288.00" xmlns="http://www.w3.org/2000/svg" xmlns:xlink="http://www.w3.org/1999/xlink">
<g id="graph0" class="graph" transform="scale(1.1077 1.1077) rotate(0) translate(4 256)">
<title>G</title>
<polygon fill="#ffffff" stroke="transparent" points="-4,4 -4,-256 201.7253,-256 201.7253,4 -4,4"/>
<!-- cp -->
<g id="node1" class="node">
<title>cp</title>
<ellipse fill="none" stroke="#000000" cx="81" cy="-162" rx="49.5726" ry="18"/>
<text text-anchor="middle" x="81" y="-159.3" font-family="monospace" font-size="9.00" fill="#000000">commentPrototype</text>
</g>
<!-- approve -->
<g id="node2" class="node">
<title>approve</title>
<ellipse fill="none" stroke="#000000" cx="31" cy="-234" rx="29.7775" ry="18"/>
<text text-anchor="middle" x="31" y="-231.3" font-family="monospace" font-size="9.00" fill="#000000">approve()</text>
</g>
<!-- cp&#45;&gt;approve -->
<g id="edge1" class="edge">
<title>cp-&gt;approve</title>
<path fill="none" stroke="#000000" d="M68.6404,-179.7978C62.6181,-188.4699 55.2677,-199.0545 48.6659,-208.5611"/>
<polygon fill="#000000" stroke="#000000" points="45.7023,-206.6927 42.8731,-216.9028 51.4519,-210.6855 45.7023,-206.6927"/>
</g>
<!-- buildDeleteButton -->
<g id="node3" class="node">
<title>buildDeleteButton</title>
<ellipse fill="none" stroke="#000000" cx="131" cy="-234" rx="51.7554" ry="18"/>
<text text-anchor="middle" x="131" y="-231.3" font-family="monospace" font-size="9.00" fill="#000000">buildDeleteButton()</text>
</g>
<!-- cp&#45;&gt;buildDeleteButton -->
<g id="edge2" class="edge">
<title>cp-&gt;buildDeleteButton</title>
<path fill="none" stroke="#000000" d="M93.3596,-179.7978C99.2933,-188.3424 106.5164,-198.7436 113.0423,-208.141"/>
<polygon fill="#000000" stroke="#000000" points="110.2038,-210.1897 118.7826,-216.407 115.9534,-206.1969 110.2038,-210.1897"/>
</g>
<!-- obj -->
<g id="node4" class="node">
<title>obj</title>
<ellipse fill="none" stroke="#000000" cx="27" cy="-90" rx="27" ry="18"/>
<text text-anchor="middle" x="27" y="-87.3" font-family="monospace" font-size="9.00" fill="#000000">obj</text>
</g>
<!-- obj&#45;&gt;cp -->
<g id="edge3" class="edge">
<title>obj-&gt;cp</title>
<path fill="none" stroke="#000000" stroke-dasharray="5,2" d="M39.2534,-106.3379C45.9146,-115.2194 54.3031,-126.4041 61.8102,-136.4136"/>
<polygon fill="#000000" stroke="#000000" points="59.0516,-138.5688 67.8516,-144.4688 64.6516,-134.3688 59.0516,-138.5688"/>
</g>
<!-- bcp -->
<g id="node5" class="node">
<title>bcp</title>
<ellipse fill="none" stroke="#000000" cx="135" cy="-90" rx="62.9515" ry="18"/>
<text text-anchor="middle" x="135" y="-87.3" font-family="monospace" font-size="9.00" fill="#000000">betterCommentPrototype</text>
</g>
<!-- bcp&#45;&gt;cp -->
<g id="edge4" class="edge">
<title>bcp-&gt;cp</title>
<path fill="none" stroke="#000000" stroke-dasharray="5,2" d="M121.6517,-107.7978C115.2432,-116.3424 107.4423,-126.7436 100.3943,-136.141"/>
<polygon fill="#000000" stroke="#000000" points="97.3948,-134.3069 94.1948,-144.407 102.9948,-138.507 97.3948,-134.3069"/>
</g>
<!-- bobj -->
<g id="node6" class="node">
<title>bobj</title>
<ellipse fill="none" stroke="#000000" cx="135" cy="-18" rx="29.1154" ry="18"/>
<text text-anchor="middle" x="135" y="-15.3" font-family="monospace" font-size="9.00" fill="#000000">betterObj</text>
</g>
<!-- bobj&#45;&gt;bcp -->
<g id="edge5" class="edge">
<title>bobj-&gt;bcp</title>
<path fill="none" stroke="#000000" stroke-dasharray="5,2" d="M135,-36.1686C135,-43.869 135,-53.0257 135,-61.5834"/>
<polygon fill="#000000" stroke="#000000" points="131.5001,-61.5867 135,-71.5867 138.5001,-61.5868 131.5001,-61.5867"/>
</g>
</g>
</svg>