<?xml version="1.0" encoding="UTF-8" standalone="no"?>
<!DOCTYPE svg PUBLIC "-//W3C//DTD SVG 1.1//EN" "http://www.w3.org/Graphics/SVG/1.1/DTD/svg11.dtd">
<!-- Generated by graphviz version 2.40.1 (20161225.0304)
 -->
<!-- Title: G Pages: 1 -->
<svg width="388pt" height="260pt" viewBox="0.00 0.00 388.24 260.00" xmlns="http://www.w3.org/2000/svg" xmlns:xlink="http://www.w3.org/1999/xlink">
<g id="graph0" class="graph" transform="scale(1 1) rotate(0) translate(4 256)">
<title>G</title>
<polygon fill="#ffffff" stroke="transparent" points="-4,4 -4,-256 384.2407,-256 384.2407,4 -4,4"/>
<!-- cp -->
<g id="node1" class="node">
<title>cp</title>
<ellipse fill="none" stroke="#000000" cx="138.1283" cy="-162" rx="88.6076" ry="18"/>
<text text-anchor="middle" x="138.1283" y="-157.8" font-family="monospace" font-size="14.00" fill="#000000">Comment.prototype</text>
</g>
<!-- approve -->
<g id="node2" class="node">
<title>approve</title>
<ellipse fill="none" stroke="#000000" cx="61.1283" cy="-234" rx="48.6365" ry="18"/>
<text text-anchor="middle" x="61.1283" y="-229.8" font-family="monospace" font-size="14.00" fill="#000000">approve()</text>
</g>
<!-- cp&#45;&gt;approve -->
<g id="edge1" class="edge">
<title>cp-&gt;approve</title>
<path fill="none" stroke="#000000" d="M119.0946,-179.7978C109.2753,-188.9794 97.1635,-200.3048 86.5546,-210.2248"/>
<polygon fill="#000000" stroke="#000000" points="84.0633,-207.7626 79.1495,-217.149 88.8443,-212.8756 84.0633,-207.7626"/>
</g>
<!-- buildDeleteButton -->
<g id="node3" class="node">
<title>buildDeleteButton</title>
<ellipse fill="none" stroke="#000000" cx="216.1283" cy="-234" rx="88.6217" ry="18"/>
<text text-anchor="middle" x="216.1283" y="-229.8" font-family="monospace" font-size="14.00" fill="#000000">buildDeleteButton()</text>
</g>
<!-- cp&#45;&gt;buildDeleteButton -->
<g id="edge2" class="edge">
<title>cp-&gt;buildDeleteButton</title>
<path fill="none" stroke="#000000" d="M157.4092,-179.7978C167.1382,-188.7783 179.0889,-199.8098 189.6637,-209.5711"/>
<polygon fill="#000000" stroke="#000000" points="187.3472,-212.196 197.0692,-216.407 192.0951,-207.0523 187.3472,-212.196"/>
</g>
<!-- Comment -->
<g id="node4" class="node">
<title>Comment</title>
<ellipse fill="none" stroke="#000000" cx="49.1283" cy="-90" rx="49.257" ry="18"/>
<text text-anchor="middle" x="49.1283" y="-85.8" font-family="monospace" font-size="14.00" fill="#000000">Comment</text>
</g>
<!-- Comment&#45;&gt;cp -->
<g id="edge3" class="edge">
<title>Comment-&gt;cp</title>
<path fill="none" stroke="#000000" d="M69.7704,-106.6992C81.228,-115.9683 95.6815,-127.661 108.3437,-137.9046"/>
<polygon fill="#000000" stroke="#000000" points="106.3806,-140.8184 116.3565,-144.3868 110.7833,-135.3762 106.3806,-140.8184"/>
</g>
<!-- BetterComment -->
<g id="node5" class="node">
<title>BetterComment</title>
<ellipse fill="none" stroke="#000000" cx="147.1283" cy="-18" rx="72.9489" ry="18"/>
<text text-anchor="middle" x="147.1283" y="-13.8" font-family="monospace" font-size="14.00" fill="#000000">BetterComment</text>
</g>
<!-- bcp -->
<g id="node6" class="node">
<title>bcp</title>
<ellipse fill="none" stroke="#000000" cx="228.1283" cy="-90" rx="112.2993" ry="18"/>
<text text-anchor="middle" x="228.1283" y="-85.8" font-family="monospace" font-size="14.00" fill="#000000">BetterComment.prototype</text>
</g>
<!-- BetterComment&#45;&gt;bcp -->
<g id="edge4" class="edge">
<title>BetterComment-&gt;bcp</title>
<path fill="none" stroke="#000000" d="M166.7362,-35.4292C176.8333,-44.4045 189.3163,-55.5004 200.3839,-65.3383"/>
<polygon fill="#000000" stroke="#000000" points="198.3389,-68.2034 208.1383,-72.2311 202.9895,-62.9715 198.3389,-68.2034"/>
</g>
<!-- bcp&#45;&gt;cp -->
<g id="edge5" class="edge">
<title>bcp-&gt;cp</title>
<path fill="none" stroke="#000000" stroke-dasharray="5,2" d="M205.8811,-107.7978C194.4374,-116.9527 180.3296,-128.239 167.9554,-138.1383"/>
<polygon fill="#000000" stroke="#000000" points="165.7419,-135.4269 160.1196,-144.407 170.1148,-140.893 165.7419,-135.4269"/>
</g>
<!-- betterComment -->
<g id="node7" class="node">
<title>betterComment</title>
<ellipse fill="none" stroke="#000000" cx="309.1283" cy="-18" rx="71.2249" ry="18"/>
<text text-anchor="middle" x="309.1283" y="-13.8" font-family="monospace" font-size="14.00" fill="#000000">betterComment</text>
</g>
<!-- betterComment&#45;&gt;bcp -->
<g id="edge6" class="edge">
<title>betterComment-&gt;bcp</title>
<path fill="none" stroke="#000000" stroke-dasharray="5,2" d="M289.5205,-35.4292C279.4233,-44.4045 266.9403,-55.5004 255.8727,-65.3383"/>
<polygon fill="#000000" stroke="#000000" points="253.2671,-62.9715 248.1183,-72.2311 257.9177,-68.2034 253.2671,-62.9715"/>
</g>
</g>
</svg>