<?xml version="1.0" encoding="UTF-8" standalone="no"?>
<!DOCTYPE svg PUBLIC "-//W3C//DTD SVG 1.1//EN" "http://www.w3.org/Graphics/SVG/1.1/DTD/svg11.dtd">
<!-- Generated by graphviz version 2.40.1 (20161225.0304)
 -->
<!-- Title: G Pages: 1 -->
<svg width="399pt" height="332pt" viewBox="0.00 0.00 399.05 332.00" xmlns="http://www.w3.org/2000/svg" xmlns:xlink="http://www.w3.org/1999/xlink">
<g id="graph0" class="graph" transform="scale(1 1) rotate(0) translate(4 328)">
<title>G</title>
<polygon fill="#ffffff" stroke="transparent" points="-4,4 -4,-328 395.0522,-328 395.0522,4 -4,4"/>
<!-- &lt;html&gt; -->
<g id="node1" class="node">
<title>&lt;html&gt;</title>
<ellipse fill="none" stroke="#000000" cx="89.158" cy="-306" rx="39.7716" ry="18"/>
<text text-anchor="middle" x="89.158" y="-301.8" font-family="monospace" font-size="14.00" fill="#000000">&lt;html&gt;</text>
</g>
<!-- &lt;head&gt; -->
<g id="node2" class="node">
<title>&lt;head&gt;</title>
<ellipse fill="none" stroke="#000000" cx="40.158" cy="-234" rx="40.3166" ry="18"/>
<text text-anchor="middle" x="40.158" y="-229.8" font-family="monospace" font-size="14.00" fill="#000000">&lt;head&gt;</text>
</g>
<!-- &lt;html&gt;&#45;&#45;&lt;head&gt; -->
<g id="edge1" class="edge">
<title>&lt;html&gt;--&lt;head&gt;</title>
<path fill="none" stroke="#000000" d="M77.2965,-288.5708C69.5924,-277.2506 59.5925,-262.5568 51.9103,-251.2687"/>
</g>
<!-- &lt;body&gt; -->
<g id="node5" class="node">
<title>&lt;body&gt;</title>
<ellipse fill="none" stroke="#000000" cx="139.158" cy="-234" rx="41.4844" ry="18"/>
<text text-anchor="middle" x="139.158" y="-229.8" font-family="monospace" font-size="14.00" fill="#000000">&lt;body&gt;</text>
</g>
<!-- &lt;html&gt;&#45;&#45;&lt;body&gt; -->
<g id="edge4" class="edge">
<title>&lt;html&gt;--&lt;body&gt;</title>
<path fill="none" stroke="#000000" d="M101.2616,-288.5708C109.1228,-277.2506 119.3269,-262.5568 127.1658,-251.2687"/>
</g>
<!-- &lt;title&gt; -->
<g id="node3" class="node">
<title>&lt;title&gt;</title>
<ellipse fill="none" stroke="#000000" cx="40.158" cy="-162" rx="36.898" ry="18"/>
<text text-anchor="middle" x="40.158" y="-157.8" font-family="monospace" font-size="14.00" fill="#000000">&lt;title&gt;</text>
</g>
<!-- &lt;head&gt;&#45;&#45;&lt;title&gt; -->
<g id="edge2" class="edge">
<title>&lt;head&gt;--&lt;title&gt;</title>
<path fill="none" stroke="#000000" d="M40.158,-215.8314C40.158,-205 40.158,-191.2876 40.158,-180.4133"/>
</g>
<!-- Titulek -->
<g id="node4" class="node">
<title>Titulek</title>
<ellipse fill="none" stroke="#000000" cx="40.158" cy="-90" rx="38.8613" ry="18"/>
<text text-anchor="middle" x="40.158" y="-85.8" font-family="monospace" font-size="14.00" fill="#000000">Titulek</text>
</g>
<!-- &lt;title&gt;&#45;&#45;Titulek -->
<g id="edge3" class="edge">
<title>&lt;title&gt;--Titulek</title>
<path fill="none" stroke="#000000" d="M40.158,-143.8314C40.158,-133 40.158,-119.2876 40.158,-108.4133"/>
</g>
<!-- &lt;h1&gt; -->
<g id="node6" class="node">
<title>&lt;h1&gt;</title>
<ellipse fill="none" stroke="#000000" cx="138.158" cy="-162" rx="31.6693" ry="18"/>
<text text-anchor="middle" x="138.158" y="-157.8" font-family="monospace" font-size="14.00" fill="#000000">&lt;h1&gt;</text>
</g>
<!-- &lt;body&gt;&#45;&#45;&lt;h1&gt; -->
<g id="edge5" class="edge">
<title>&lt;body&gt;--&lt;h1&gt;</title>
<path fill="none" stroke="#000000" d="M138.9056,-215.8314C138.7552,-205 138.5648,-191.2876 138.4137,-180.4133"/>
</g>
<!-- &lt;p&gt; -->
<g id="node8" class="node">
<title>&lt;p&gt;</title>
<ellipse fill="none" stroke="#000000" cx="247.158" cy="-162" rx="27" ry="18"/>
<text text-anchor="middle" x="247.158" y="-157.8" font-family="monospace" font-size="14.00" fill="#000000">&lt;p&gt;</text>
</g>
<!-- &lt;body&gt;&#45;&#45;&lt;p&gt; -->
<g id="edge7" class="edge">
<title>&lt;body&gt;--&lt;p&gt;</title>
<path fill="none" stroke="#000000" d="M161.7983,-218.9064C181.3441,-205.8759 209.2783,-187.2531 227.8011,-174.9046"/>
</g>
<!-- Nadpis -->
<g id="node7" class="node">
<title>Nadpis</title>
<ellipse fill="none" stroke="#000000" cx="137.158" cy="-90" rx="38.2818" ry="18"/>
<text text-anchor="middle" x="137.158" y="-85.8" font-family="monospace" font-size="14.00" fill="#000000">Nadpis</text>
</g>
<!-- &lt;h1&gt;&#45;&#45;Nadpis -->
<g id="edge6" class="edge">
<title>&lt;h1&gt;--Nadpis</title>
<path fill="none" stroke="#000000" d="M137.9056,-143.8314C137.7552,-133 137.5648,-119.2876 137.4137,-108.4133"/>
</g>
<!-- Odstavec s -->
<g id="node9" class="node">
<title>Odstavec s</title>
<ellipse fill="none" stroke="#000000" cx="247.158" cy="-90" rx="53.2684" ry="18"/>
<text text-anchor="middle" x="247.158" y="-85.8" font-family="monospace" font-size="14.00" fill="#000000">Odstavec s</text>
</g>
<!-- &lt;p&gt;&#45;&#45;Odstavec s -->
<g id="edge8" class="edge">
<title>&lt;p&gt;--Odstavec s</title>
<path fill="none" stroke="#000000" d="M247.158,-143.8314C247.158,-133 247.158,-119.2876 247.158,-108.4133"/>
</g>
<!-- &lt;a&gt; -->
<g id="node10" class="node">
<title>&lt;a&gt;</title>
<ellipse fill="none" stroke="#000000" cx="345.158" cy="-90" rx="27" ry="18"/>
<text text-anchor="middle" x="345.158" y="-85.8" font-family="monospace" font-size="14.00" fill="#000000">&lt;a&gt;</text>
</g>
<!-- &lt;p&gt;&#45;&#45;&lt;a&gt; -->
<g id="edge9" class="edge">
<title>&lt;p&gt;--&lt;a&gt;</title>
<path fill="none" stroke="#000000" d="M265.591,-148.4574C283.1119,-135.5849 309.3141,-116.3343 326.8076,-103.4819"/>
</g>
<!-- odkazem -->
<g id="node11" class="node">
<title>odkazem</title>
<ellipse fill="none" stroke="#000000" cx="345.158" cy="-18" rx="45.7887" ry="18"/>
<text text-anchor="middle" x="345.158" y="-13.8" font-family="monospace" font-size="14.00" fill="#000000">odkazem</text>
</g>
<!-- &lt;a&gt;&#45;&#45;odkazem -->
<g id="edge10" class="edge">
<title>&lt;a&gt;--odkazem</title>
<path fill="none" stroke="#000000" d="M345.158,-71.8314C345.158,-61 345.158,-47.2876 345.158,-36.4133"/>
</g>
</g>
</svg>